Coordinates
version=1
nRows=20
nColumns=38
inDegrees=no

Units are S.I. units (second, meters, Newtons, ...)
If the header above contains a line with 'inDegrees', this indicates whether rotational values are in degrees (yes) or radians (no).

endheader
time	pelvis_tilt	pelvis_list	pelvis_rotation	pelvis_tx	pelvis_ty	pelvis_tz	hip_flexion_r	hip_adduction_r	hip_rotation_r	knee_angle_r	ankle_angle_r	subtalar_angle_r	mtp_angle_r	hip_flexion_l	hip_adduction_l	hip_rotation_l	knee_angle_l	ankle_angle_l	subtalar_angle_l	mtp_angle_l	lumbar_extension	lumbar_bending	lumbar_rotation	arm_flex_r	arm_add_r	arm_rot_r	elbow_flex_r	pro_sup_r	wrist_flex_r	wrist_dev_r	arm_flex_l	arm_add_l	arm_rot_l	elbow_flex_l	pro_sup_l	wrist_flex_l	wrist_dev_l
7.64	2.82491	1.5102	-1.32375	0.646212	0.558072	0.947324	-0.285255	-0.0171173	-0.0861278	0	0.0634525	0	0	-0.0435835	-0.0262059	-0.422421	0.25007	0.144734	0	0	-0.873043	-0.0509022	0.0176528	1.55878	-0.51563	1.24392	0.793517	0.711599	0	0	1.26945	-0.495111	0.625997	1.22458	1.07669	0	0
7.65	2.82105	1.51256	-1.31679	0.644508	0.56132	0.946883	-0.285176	-0.0180842	-0.0890576	0	0.0676796	0	0	-0.0468025	-0.0229898	-0.420485	0.244512	0.146083	0	0	-0.867757	-0.0500479	0.0133386	1.54358	-0.517906	1.23052	0.799543	0.71808	0	0	1.2498	-0.495029	0.613651	1.24159	1.08839	0	0
7.66	2.81246	1.51479	-1.30522	0.642914	0.564355	0.946478	-0.284779	-0.0187914	-0.0928708	0	0.0722692	0	0	-0.0506326	-0.019699	-0.417965	0.237861	0.146949	0	0	-0.862436	-0.0488938	0.0101614	1.52891	-0.520051	1.21767	0.805644	0.722593	0	0	1.23141	-0.492612	0.60133	1.25465	1.0983	0	0
7.67	2.80223	1.51626	-1.29141	0.641253	0.56743	0.94612	-0.285024	-0.0190767	-0.0972935	0	0.0769917	0	0	-0.0549457	-0.0169618	-0.416309	0.231896	0.148336	0	0	-0.857237	-0.0470167	0.00746388	1.51448	-0.521419	1.20619	0.809589	0.732482	0	0	1.21562	-0.490372	0.595654	1.26476	1.07611	0	0
7.68	2.87988	1.49497	-1.36459	0.6393	0.568668	0.947241	-0.308184	-0.0190284	-0.103668	0	0.0839231	0	0	-0.0825666	-0.0140637	-0.412262	0.225336	0.148948	0	0	-0.888015	-0.0440681	0.00558288	1.52618	-0.538666	1.21084	0.843191	0.730541	0	0	1.21757	-0.494874	0.588226	1.29347	1.11179	0	0
7.69	2.79803	1.51859	-1.27841	0.637722	0.573935	0.945484	-0.286327	-0.0197697	-0.110191	0	0.0899904	0	0	-0.06626	-0.0100345	-0.409833	0.216397	0.148425	0	0	-0.846423	-0.0422717	0.00282368	1.48525	-0.527032	1.18478	0.822935	0.73884	0	0	1.18227	-0.480274	0.571719	1.27678	1.12076	0	0
7.7	2.79897	1.51844	-1.27507	0.636082	0.57719	0.945236	-0.288072	-0.0200788	-0.114923	0	0.0960344	0	0	-0.0728421	-0.00735251	-0.408195	0.210253	0.148818	0	0	-0.841533	-0.0397733	0.00115142	1.47303	-0.529816	1.18083	0.826912	0.738674	0	0	1.1691	-0.477081	0.568038	1.2813	1.11382	0	0
7.71	2.85528	1.49658	-1.32925	0.633819	0.578862	0.946416	-0.311845	-0.0233239	-0.129431	1.17456e-08	0.107696	0	0	-0.10165	-0.0065653	-0.405206	0.204086	0.149334	0	0	-0.870257	-0.0363683	0.00331842	1.48535	-0.549024	1.19319	0.858044	0.735488	0	0	1.17467	-0.482686	0.572956	1.30597	1.11488	0	0
7.72	2.78551	1.51265	-1.25462	0.631941	0.583742	0.94536	-0.285191	-0.0254966	-0.140523	0.0251694	0.118442	0	0	-0.0929668	-0.00351796	-0.400316	0.195364	0.147591	0	0	-0.836244	-0.0326719	7.82467e-05	1.45225	-0.537946	1.18011	0.835891	0.738274	0	0	1.14614	-0.472792	0.566253	1.28786	1.12104	0	0
7.73	2.7833	1.51105	-1.24708	0.629812	0.586714	0.945417	-0.272141	-0.0281273	-0.154857	0.0602959	0.132012	0	0	-0.100029	-0.00174053	-0.394807	0.190343	0.147781	0	0	-0.832217	-0.0282646	-0.00307551	1.44182	-0.538991	1.17927	0.833579	0.74205	0	0	1.13504	-0.472105	0.566215	1.28938	1.1277	0	0
7.74	2.79231	1.50797	-1.25114	0.627727	0.589776	0.945631	-0.260503	-0.0315734	-0.168139	0.0964058	0.144466	0	0	-0.10915	0.000202566	-0.390089	0.185043	0.148621	0	0	-0.829696	-0.0242709	-0.00585317	1.43237	-0.541762	1.1811	0.832828	0.744445	0	0	1.12579	-0.472071	0.56941	1.29037	1.13246	0	0
7.75	2.8024	1.50471	-1.25671	0.625744	0.592952	0.945856	-0.248692	-0.0356376	-0.18049	0.133684	0.155951	0	0	-0.118423	0.00196719	-0.386119	0.180158	0.149069	0	0	-0.827005	-0.0206055	-0.008287	1.4233	-0.54478	1.18453	0.831352	0.745454	0	0	1.11764	-0.47205	0.574764	1.29003	1.13511	0	0
7.76	2.81004	1.50154	-1.25975	0.623787	0.596208	0.946011	-0.236469	-0.0399903	-0.193074	0.171733	0.166327	0	0	-0.127416	0.00345678	-0.382682	0.175724	0.148082	0	0	-0.823848	-0.0168026	-0.0105024	1.41483	-0.548051	1.18974	0.829268	0.745136	0	0	1.10997	-0.471349	0.580679	1.28876	1.13653	0	0
7.77	2.87961	1.47807	-1.32466	0.621699	0.597642	0.9474	-0.243975	-0.0443316	-0.205149	0.211481	0.175703	0	0	-0.156157	0.00418912	-0.379414	0.173131	0.148315	0	0	-0.854167	-0.0116685	-0.0127162	1.43216	-0.564118	1.21338	0.853344	0.738442	0	0	1.11764	-0.481873	0.59065	1.31253	1.13314	0	0
7.78	2.88544	1.4733	-1.32567	0.619769	0.601018	0.947691	-0.235033	-0.0484062	-0.215915	0.246441	0.180739	0	0	-0.166972	0.0055747	-0.374854	0.168599	0.148483	0	0	-0.852524	-0.00739331	-0.0146996	1.42646	-0.568577	1.22529	0.853684	0.729575	0	0	1.11068	-0.480205	0.597399	1.31101	1.12904	0	0
7.79	2.88771	1.46981	-1.32285	0.617893	0.604452	0.947922	-0.225388	-0.0522246	-0.225908	0.279777	0.183718	0	0	-0.175803	0.00662739	-0.36943	0.165135	0.149127	0	0	-0.849283	-0.00305985	-0.0169947	1.41991	-0.571071	1.23589	0.850389	0.72122	0	0	1.10329	-0.476867	0.602919	1.30725	1.1254	0	0
7.8	2.88944	1.46587	-1.31918	0.616068	0.607918	0.948237	-0.217317	-0.0554711	-0.235713	0.310377	0.185505	0	0	-0.184786	0.00717323	-0.363545	0.16233	0.150962	0	0	-0.846492	0.00153744	-0.0194444	1.41319	-0.572672	1.24617	0.845799	0.713125	0	0	1.09596	-0.472777	0.608043	1.30255	1.12297	0	0
7.81	2.89003	1.46151	-1.31441	0.614333	0.611469	0.948656	-0.211147	-0.0577957	-0.243646	0.337251	0.185786	0	0	-0.194137	0.00722138	-0.357309	0.160002	0.154263	0	0	-0.844042	0.00624674	-0.0215607	1.40589	-0.573947	1.25643	0.840539	0.702166	0	0	1.08824	-0.467825	0.612296	1.29699	1.12161	0	0
7.82	2.88875	1.45734	-1.30771	0.612637	0.615065	0.94908	-0.205649	-0.0596454	-0.251326	0.361465	0.185264	0	0	-0.203374	0.00706739	-0.350371	0.157222	0.154178	0	0	-0.841153	0.0113131	-0.0235219	1.39977	-0.575183	1.27217	0.835853	0.670526	0	0	1.07967	-0.462037	0.614759	1.29042	1.12479	0	0
7.83	2.88538	1.45291	-1.29877	0.611046	0.618733	0.949576	-0.201367	-0.0608183	-0.259425	0.382958	0.186226	0	0	-0.21271	0.00612899	-0.344542	0.154634	0.150817	0	0	-0.838239	0.0165464	-0.0251618	1.39149	-0.574888	1.28003	0.828474	0.662787	0	0	1.07096	-0.455912	0.617526	1.28347	1.12785	0	0
